<?xml version="1.0" standalone="no"?>
<!DOCTYPE svg PUBLIC "-//W3C//DTD SVG 20010904//EN"
 "http://www.w3.org/TR/2001/REC-SVG-20010904/DTD/svg10.dtd">
<svg version="1.0" xmlns="http://www.w3.org/2000/svg"
 width="16.000000pt" height="16.000000pt" viewBox="0 0 16.000000 16.000000"
 preserveAspectRatio="xMidYMid meet">
<metadata>
Created by potrace 1.11, written by Peter Selinger 2001-2013
</metadata>
<g transform="translate(0.000000,16.000000) scale(0.002649,-0.002649)"
fill="#000000" stroke="none">
<path d="M2829 6036 c-2 -2 -47 -7 -99 -11 -52 -3 -97 -8 -100 -10 -3 -1 -32
-6 -65 -10 -32 -3 -62 -8 -65 -10 -3 -2 -23 -6 -45 -9 -120 -19 -445 -114
-555 -162 -532 -235 -879 -496 -1233 -929 -135 -165 -313 -466 -405 -685 -99
-236 -185 -542 -208 -740 -4 -30 -8 -58 -10 -61 -2 -3 -7 -48 -11 -100 -15
-173 -8 -574 11 -674 2 -11 7 -42 10 -70 24 -187 120 -538 187 -682 10 -24 19
-45 19 -49 0 -16 129 -270 182 -359 138 -229 257 -381 448 -575 189 -190 306
-289 475 -398 39 -24 93 -60 122 -78 74 -48 311 -166 428 -212 165 -65 394
-133 529 -156 16 -3 52 -10 80 -15 209 -40 705 -50 871 -17 11 2 47 7 80 11
32 3 62 8 65 10 3 2 23 6 45 9 182 29 494 130 700 227 152 72 434 239 483 286
7 7 17 13 20 13 4 0 18 10 32 23 14 13 32 27 41 33 96 55 461 430 559 574 13
19 27 37 31 40 13 10 132 196 186 294 140 249 280 624 319 856 3 14 9 48 14
75 5 28 12 68 16 90 3 22 7 51 10 65 19 110 26 506 12 666 -53 590 -282 1156
-656 1623 -72 90 -289 315 -377 392 -98 85 -288 224 -390 286 -393 238 -728
352 -1250 428 -45 7 -500 16 -506 11z"/>
</g>
</svg>
